Coordinates
version=1
nRows=10
nColumns=22
inDegrees=yes

Units are S.I. units (second, meters, Newtons, ...)
If the header above contains a line with 'inDegrees', this indicates whether rotational values are in degrees (yes) or radians (no).

endheader
time	pelvis_tilt	pelvis_list	pelvis_rotation	pelvis_tx	pelvis_ty	pelvis_tz	hip_flexion_r	hip_adduction_r	hip_rotation_r	knee_angle_r	ankle_angle_r	subtalar_angle_r	hip_flexion_l	hip_adduction_l	hip_rotation_l	knee_angle_l	ankle_angle_l	subtalar_angle_l	lumbar_extension	lumbar_bending	lumbar_rotation
      1.42000000	     -1.86338838	     -3.21361144	     -0.03623728	     -1.68393907	      1.06880005	     -0.29293614	      1.66074946	      5.91974207	     -1.75892106	    -13.73395250	     16.59621438	     -2.54517718	     16.02139651	     -3.63604123	      2.39395286	    -40.71870425	     11.68388682	      5.89301804	     -7.70639198	      1.49989073	     -3.36835693
      1.43000000	     -1.91578914	     -3.16658858	      0.06634249	     -1.68286126	      1.06867284	     -0.29215322	      1.61573600	      5.92211578	     -1.83595610	    -13.67098188	     16.62439165	     -2.60229248	     17.05858427	     -3.48331946	      2.70222385	    -42.17264751	     11.11657549	      6.39932943	     -7.93113574	      1.44923975	     -3.22675078
      1.44000000	     -1.98267287	     -3.10129158	      0.15292305	     -1.68164085	      1.06853856	     -0.29141164	      1.57417011	      5.90054320	     -1.90520018	    -13.60263834	     16.70738055	     -2.64874905	     18.08257055	     -3.31658501	      2.92831543	    -43.48156255	     10.67767275	      6.87831024	     -8.13273075	      1.37856395	     -3.08858113
      1.45000000	     -2.04905770	     -3.00277677	      0.24475427	     -1.68022681	      1.06845904	     -0.29074865	      1.50510325	      5.83595811	     -2.00780048	    -13.50099069	     16.73871150	     -2.67032081	     19.05984711	     -3.10969517	      3.10345062	    -44.60201379	     10.32636088	      7.23673471	     -8.32145224	      1.26970226	     -2.95427012
      1.46000000	     -2.13356128	     -2.89458016	      0.31983797	     -1.67867476	      1.06836007	     -0.29011423	      1.45048956	      5.75776548	     -2.09077130	    -13.40906407	     16.81576238	     -2.67642422	     20.02030492	     -2.90165925	      3.20518701	    -45.54492124	     10.12002363	      7.53013624	     -8.48405696	      1.14924040	     -2.81902587
      1.47000000	     -2.21948787	     -2.76819470	      0.38469764	     -1.67694856	      1.06828249	     -0.28951162	      1.38090216	      5.65608898	     -2.17368325	    -13.30487278	     16.89099268	     -2.66297235	     20.93542263	     -2.68565410	      3.23523265	    -46.28676153	     10.02926901	      7.71193309	     -8.63646897	      1.00533638	     -2.68418562
      1.48000000	     -2.30688527	     -2.62718717	      0.43702444	     -1.67503949	      1.06821834	     -0.28892523	      1.29717849	      5.53567321	     -2.25407460	    -13.19084930	     16.96334131	     -2.63303471	     21.80407724	     -2.47106719	      3.19194845	    -46.82385725	     10.03033011	      7.78703351	     -8.77846895	      0.84053894	     -2.54683725
      1.49000000	     -2.39832109	     -2.47864445	      0.47704455	     -1.67295093	      1.06815228	     -0.28834510	      1.20547662	      5.40487498	     -2.33393037	    -13.07229490	     17.03065449	     -2.59105408	     22.63060542	     -2.26813465	      3.08094476	    -47.15934906	     10.10153968	      7.77336692	     -8.90808502	      0.66180012	     -2.40592630
      1.50000000	     -2.49375141	     -2.32510978	      0.50583606	     -1.67067772	      1.06807408	     -0.28776947	      1.10675756	      5.26686584	     -2.41010755	    -12.95175703	     17.09339755	     -2.54132403	     23.41508414	     -2.08059867	      2.90930546	    -47.29762896	     10.21277316	      7.68492107	     -9.02531127	      0.47261128	     -2.26435089
      1.51000000	     -2.59041178	     -2.16598674	      0.52400631	     -1.66821582	      1.06797817	     -0.28718915	      1.00143838	      5.12165324	     -2.48422555	    -12.83566240	     17.15244673	     -2.49018067	     24.15280945	     -1.90907310	      2.68305709	    -47.24267768	     10.34479537	      7.53932888	     -9.13345830	      0.26959788	     -2.11855262
